:FULLY-SPECIFIED
:FORCE-ALL-JOINTS-BE-3DOF
:DEGREES
747
root 3.89864 17.8483 13.9932 -163.337 -1.2324 -169.128
lfemur -24.8819 -6.67365 -6.97203
ltibia 29.2073 -0 0
lfoot -9.93603 -4.07094 -0.628999
ltoes 13.1835 -0 0
rfemur -24.5914 -28.2798 1.82241
rtibia 107.211 -0 0
rfoot 18.5364 0.594214 2.56351
rtoes 15.048 -0 0
lowerback 1.08863 7.08312 0.724626
upperback -2.09126 9.44435 -1.51778
thorax -2.3884 4.68624 -2.23289
lowerneck -7.27987 -7.56742 -0.969576
upperneck -1.94097 -10.1196 3.4978
head 0.838269 -5.05221 0.929725
lclavicle -4.41957e-14 -3.23195e-14 -3.42956e-30
lhumerus -57.456 -13.5377 62.8832
lradius 53.0584 -0 0
lwrist 20.0925 0 0
lhand -22.803 -4.01292 -0.00343984
lfingers 7.12502 -0 0
lthumb 3.63329 25.9346 -0.00341189
rclavicle -4.41957e-14 -3.23195e-14 -3.42956e-30
rhumerus 29.1456 26.4955 -55.7744
rradius 89.5589 -0 0
rwrist -4.55389 0 0
rhand -28.6457 -28.2721 0.081923
rfingers 7.12502 -0 0
rthumb -2.00954 -58.2307 0.0790643
748
root 3.82981 17.8028 14.1315 -163.164 1.85752 -168.974
lfemur -25.2072 -6.04748 -7.13146
ltibia 29.8507 -0 0
lfoot -10.2991 -3.32279 -0.686473
ltoes 13.2738 -0 0
rfemur -24.3447 -28.0746 2.41877
rtibia 105.539 -0 0
rfoot 17.4364 -0.400364 2.80047
rtoes 13.8286 -0 0
lowerback 1.08935 7.01036 0.675206
upperback -2.05698 9.3461 -1.58665
thorax -2.35399 4.63852 -2.27199
lowerneck -7.22083 -7.53948 -0.961282
upperneck -1.95827 -10.0783 3.54769
head 0.824459 -5.02957 0.947599
lclavicle -4.26757e-14 -3.13401e-14 -3.74134e-30
lhumerus -57.4222 -13.4682 63.854
lradius 53.591 -0 0
lwrist 19.8753 0 0
lhand -22.7569 -4.04532 -0.00375257
lfingers 7.12502 -0 0
lthumb 3.6778 25.9013 -0.00372208
rclavicle -4.26757e-14 -3.13401e-14 -3.74134e-30
rhumerus 28.0348 27.6811 -56.7795
rradius 89.2728 -0 0
rwrist -4.23638 0 0
rhand -28.5022 -28.0245 0.0893751
rfingers 7.12502 -0 0
rthumb -1.8709 -57.9833 0.0862563
749
root 3.76098 17.7573 14.2699 -162.983 4.94696 -168.811
lfemur -25.534 -5.42221 -7.29428
ltibia 30.4942 -0 0
lfoot -10.6629 -2.57429 -0.7392
ltoes 13.364 -0 0
rfemur -24.0962 -27.8717 3.01499
rtibia 103.867 -0 0
rfoot 16.3321 -1.39951 3.01827
rtoes 12.6092 -0 0
lowerback 1.09013 6.93759 0.625792
upperback -2.02259 9.2479 -1.65556
thorax -2.31955 4.59082 -2.31111
lowerneck -7.1618 -7.51155 -0.952959
upperneck -1.97553 -10.0369 3.59757
head 0.810656 -5.00694 0.965468
lclavicle -4.11557e-14 -3.03607e-14 -4.02714e-30
lhumerus -57.3873 -13.3992 64.8245
lradius 54.1236 -0 0
lwrist 19.658 0 0
lhand -22.7108 -4.07772 -0.00403925
lfingers 7.12502 -0 0
lthumb 3.7223 25.8681 -0.00400643
rclavicle -4.11557e-14 -3.03607e-14 -4.02714e-30
rhumerus 26.8882 28.8489 -57.8219
rradius 88.9866 -0 0
rwrist -3.91887 0 0
rhand -28.3586 -27.777 0.0962067
rfingers 7.12502 -0 0
rthumb -1.73223 -57.7359 0.0928494
750
root 3.69215 17.7118 14.4083 -162.792 8.03584 -168.636
lfemur -25.8622 -4.79788 -7.46052
ltibia 31.1376 -0 0
lfoot -11.0273 -1.82546 -0.78717
ltoes 13.4543 -0 0
rfemur -23.8457 -27.6711 3.6111
rtibia 102.195 -0 0
rfoot 15.224 -2.40288 3.21676
rtoes 11.3898 -0 0
lowerback 1.09097 6.86483 0.576384
upperback -1.98809 9.14973 -1.72452
thorax -2.28508 4.54315 -2.35026
lowerneck -7.10276 -7.48363 -0.944607
upperneck -1.99275 -9.99549 3.64742
head 0.796861 -4.9843 0.98333
lclavicle -3.96358e-14 -2.93813e-14 -4.28695e-30
lhumerus -57.3511 -13.3308 65.7948
lradius 54.6561 -0 0
lwrist 19.4407 0 0
lhand -22.6648 -4.11012 -0.00429987
lfingers 7.12502 -0 0
lthumb 3.76681 25.8348 -0.00426493
rclavicle -3.96358e-14 -2.93813e-14 -4.28695e-30
rhumerus 25.7041 29.9978 -58.903
rradius 88.7005 -0 0
rwrist -3.60136 0 0
rhand -28.215 -27.5294 0.102418
rfingers 7.12502 -0 0
rthumb -1.59353 -57.4885 0.0988438
751
root 3.6233 17.6663 14.5467 -162.589 11.1241 -168.45
lfemur -26.1919 -4.17451 -7.6302
ltibia 31.7811 -0 0
lfoot -11.3924 -1.07633 -0.830372
ltoes 13.5446 -0 0
rfemur -23.5933 -27.4728 4.20711
rtibia 100.523 -0 0
rfoot 14.1124 -3.41009 3.39582
rtoes 10.1704 -0 0
lowerback 1.09188 6.79206 0.526981
upperback -1.95348 9.0516 -1.79352
thorax -2.25058 4.4955 -2.38944
lowerneck -7.04373 -7.45571 -0.936227
upperneck -2.00994 -9.95409 3.69725
head 0.783074 -4.96165 1.00119
lclavicle -3.81158e-14 -2.8402e-14 -4.52079e-30
lhumerus -57.3138 -13.263 66.7649
lradius 55.1887 -0 0
lwrist 19.2234 0 0
lhand -22.6187 -4.14251 -0.00453443
lfingers 7.12502 -0 0
lthumb 3.81132 25.8015 -0.00449758
rclavicle -3.81158e-14 -2.8402e-14 -4.52079e-30
rhumerus 24.4808 31.1266 -60.0243
rradius 88.4143 -0 0
rwrist -3.28386 0 0
rhand -28.0714 -27.2817 0.108008
rfingers 7.12502 -0 0
rthumb -1.4548 -57.241 0.104239
752
root 3.55446 17.6209 14.6851 -162.374 14.2117 -168.25
lfemur -26.5233 -3.55213 -7.80334
ltibia 32.4245 -0 0
lfoot -11.758 -0.32693 -0.868797
ltoes 13.6348 -0 0
rfemur -23.3391 -27.2769 4.80303
rtibia 98.8515 -0 0
rfoot 12.9976 -4.42078 3.5553
rtoes 8.95103 -0 0
lowerback 1.09285 6.71929 0.477585
upperback -1.91876 8.95351 -1.86255
thorax -2.21605 4.44787 -2.42864
lowerneck -6.98469 -7.4278 -0.927819
upperneck -2.02708 -9.91268 3.74707
head 0.769294 -4.939 1.01904
lclavicle -3.65958e-14 -2.74226e-14 -4.72864e-30
lhumerus -57.2753 -13.1959 67.7347
lradius 55.7213 -0 0
lwrist 19.0061 0 0
lhand -22.5726 -4.17491 -0.00474292
lfingers 7.12502 -0 0
lthumb 3.85582 25.7682 -0.00470438
rclavicle -3.65958e-14 -2.74226e-14 -4.72864e-30
rhumerus 23.2169 32.2342 -61.1874
rradius 88.1282 -0 0
rwrist -2.96635 0 0
rhand -27.9277 -27.0341 0.112978
rfingers 7.12502 -0 0
rthumb -1.31606 -56.9936 0.109035
753
root 3.4856 17.5754 14.8235 -162.144 17.2985 -168.034
lfemur -26.8563 -2.93076 -7.97998
ltibia 33.0679 -0 0
lfoot -12.1241 0.422705 -0.902437
ltoes 13.7251 -0 0
rfemur -23.0831 -27.0833 5.39889
rtibia 97.1795 -0 0
rfoot 11.88 -5.43455 3.6951
rtoes 7.73163 -0 0
lowerback 1.09388 6.64653 0.428194
upperback -1.88393 8.85547 -1.93163
thorax -2.18149 4.40027 -2.46787
lowerneck -6.92566 -7.39991 -0.919382
upperneck -2.04419 -9.87125 3.79687
head 0.755521 -4.91635 1.03688
lclavicle -3.50758e-14 -2.64432e-14 -4.91051e-30
lhumerus -57.2357 -13.1293 68.7043
lradius 56.2539 -0 0
lwrist 18.7888 0 0
lhand -22.5265 -4.20731 -0.00492536
lfingers 7.12502 -0 0
lthumb 3.90033 25.735 -0.00488534
rclavicle -3.50758e-14 -2.64432e-14 -4.91051e-30
rhumerus 21.9107 33.3193 -62.3939
rradius 87.8421 -0 0
rwrist -2.64884 0 0
rhand -27.784 -26.7865 0.117327
rfingers 7.12502 -0 0
rthumb -1.17729 -56.7461 0.113232
754
root 3.41674 17.53 14.9619 -161.897 20.3844 -167.802
lfemur -27.1911 -2.31043 -8.16015
ltibia 33.7114 -0 0
lfoot -12.4905 1.17255 -0.931284
ltoes 13.8154 -0 0
rfemur -22.8252 -26.892 5.99469
rtibia 95.5075 -0 0
rfoot 10.7599 -6.45101 3.81512
rtoes 6.51224 -0 0
lowerback 1.09497 6.57376 0.378809
upperback -1.84899 8.75747 -2.00075
thorax -2.14689 4.35269 -2.50713
lowerneck -6.86662 -7.37202 -0.910917
upperneck -2.06125 -9.8298 3.84665
head 0.741756 -4.89369 1.05472
lclavicle -3.35559e-14 -2.54638e-14 -5.0664e-30
lhumerus -57.195 -13.0635 69.6738
lradius 56.7865 -0 0
lwrist 18.5716 0 0
lhand -22.4804 -4.23971 -0.00508174
lfingers 7.12502 -0 0
lthumb 3.94484 25.7017 -0.00504044
rclavicle -3.35559e-14 -2.54638e-14 -5.0664e-30
rhumerus 20.5606 34.3806 -63.6454
rradius 87.5559 -0 0
rwrist -2.33133 0 0
rhand -27.6403 -26.5388 0.121054
rfingers 7.12502 -0 0
rthumb -1.03851 -56.4987 0.11683
755
root 3.34787 17.4846 15.1003 -161.631 23.4693 -167.55
lfemur -27.5277 -1.69116 -8.34387
ltibia 34.3548 -0 0
lfoot -12.8574 1.92256 -0.955333
ltoes 13.9057 -0 0
rfemur -22.5656 -26.7032 6.59045
rtibia 93.8356 -0 0
rfoot 9.63767 -7.46976 3.91526
rtoes 5.29284 -0 0
lowerback 1.09613 6.501 0.329429
upperback -1.81394 8.65951 -2.06991
thorax -2.11227 4.30513 -2.54641
lowerneck -6.80758 -7.34414 -0.902423
upperneck -2.07828 -9.78834 3.89641
head 0.727999 -4.87103 1.07255
lclavicle -3.20359e-14 -2.44845e-14 -5.1963e-30
lhumerus -57.1531 -12.9983 70.643
lradius 57.3191 -0 0
lwrist 18.3543 0 0
lhand -22.4343 -4.27211 -0.00521205
lfingers 7.12502 -0 0
lthumb 3.98935 25.6684 -0.0051697
rclavicle -3.20359e-14 -2.44845e-14 -5.1963e-30
rhumerus 19.165 35.4168 -64.9432
rradius 87.2698 -0 0
rwrist -2.01383 0 0
rhand -27.4966 -26.2912 0.124161
rfingers 7.12502 -0 0
rthumb -0.899712 -56.2512 0.119828
756
root 3.27899 17.4391 15.2387 -161.343 26.553 -167.275
lfemur -27.8662 -1.07299 -8.53117
ltibia 34.9983 -0 0
lfoot -13.2245 2.67272 -0.974578
ltoes 13.9959 -0 0
rfemur -22.3042 -26.5168 7.18618
rtibia 92.1636 -0 0
rfoot 8.51374 -8.49039 3.99547
rtoes 4.07344 -0 0
lowerback 1.09735 6.42824 0.280054
upperback -1.77878 8.56159 -2.13912
thorax -2.07761 4.2576 -2.58572
lowerneck -6.74854 -7.31626 -0.8939
upperneck -2.09527 -9.74687 3.94615
head 0.714249 -4.84836 1.09038
lclavicle -3.05159e-14 -2.35051e-14 -5.30023e-30
lhumerus -57.1101 -12.9338 71.612
lradius 57.8517 -0 0
lwrist 18.137 0 0
lhand -22.3882 -4.30451 -0.0053163
lfingers 7.12502 -0 0
lthumb 4.03386 25.6351 -0.0052731
rclavicle -3.05159e-14 -2.35051e-14 -5.30023e-30
rhumerus 17.7225 36.4262 -66.2889
rradius 86.9836 -0 0
rwrist -1.69632 0 0
rhand -27.3529 -26.0435 0.126646
rfingers 7.12502 -0 0
rthumb -0.760904 -56.0037 0.122226
757
root 3.21011 17.3937 15.3771 -161.03 29.6354 -166.975
lfemur -28.2066 -0.455937 -8.7221
ltibia 35.6417 -0 0
lfoot -13.5918 3.42299 -0.989016
ltoes 14.0862 -0 0
rfemur -22.041 -26.3329 7.78191
rtibia 90.4917 -0 0
rfoot 7.38845 -9.51249 4.05567
rtoes 2.85404 -0 0
lowerback 1.09864 6.35547 0.230685
upperback -1.74351 8.46371 -2.20837
thorax -2.04293 4.21009 -2.62506
lowerneck -6.68951 -7.2884 -0.88535
upperneck -2.11223 -9.70538 3.99587
head 0.700507 -4.82569 1.1082
lclavicle -2.89959e-14 -2.25257e-14 -5.37818e-30
lhumerus -57.066 -12.87 72.5808
lradius 58.3842 -0 0
lwrist 17.9197 0 0
lhand -22.3421 -4.33691 -0.00539449
lfingers 7.12502 -0 0
lthumb 4.07836 25.6018 -0.00535065
rclavicle -2.89959e-14 -2.25257e-14 -5.37818e-30
rhumerus 16.2316 37.4075 -67.6838
rradius 86.6975 -0 0
rwrist -1.37881 0 0
rhand -27.2092 -25.7958 0.12851
rfingers 7.12502 -0 0
rthumb -0.622086 -55.7562 0.124025
758
root 3.14122 17.3483 15.5156 -160.688 32.7162 -166.645
lfemur -28.5491 0.159968 -8.91669
ltibia 36.2852 -0 0
lfoot -13.9593 4.17334 -0.998643
ltoes 14.1765 -0 0
rfemur -21.7762 -26.1514 8.37762
rtibia 88.8197 -0 0
rfoot 6.2622 -10.5356 4.09583
rtoes 1.63465 -0 0
lowerback 1.09998 6.28271 0.181321
upperback -1.70813 8.36587 -2.27766
thorax -2.00821 4.1626 -2.66442
lowerneck -6.63047 -7.26055 -0.87677
upperneck -2.12914 -9.66387 4.04558
head 0.686772 -4.80301 1.12601
lclavicle -2.74759e-14 -2.15463e-14 -5.43014e-30
lhumerus -57.0208 -12.807 73.5494
lradius 58.9168 -0 0
lwrist 17.7024 0 0
lhand -22.296 -4.36931 -0.00544661
lfingers 7.12502 -0 0
lthumb 4.12287 25.5686 -0.00540236
rclavicle -2.74759e-14 -2.15463e-14 -5.43014e-30
rhumerus 14.6909 38.3588 -69.1292
rradius 86.4113 -0 0
rwrist -1.0613 0 0
rhand -27.0654 -25.5482 0.129753
rfingers 7.12502 -0 0
rthumb -0.483262 -55.5087 0.125225
